<svg width="2000" height="2000" viewBox="0 0 2000 2000" fill="none" xmlns="http://www.w3.org/2000/svg">
<rect width="2000" height="2000" fill="url(#paint0_linear_5_5)"/>
<path d="M1718.95 841C1718.95 825.887 1712.95 811.391 1702.28 800.695C1691.6 789.999 1677.11 783.977 1662 783.95C1677.1 783.95 1691.59 777.95 1702.27 767.27C1712.95 756.59 1718.95 742.104 1718.95 727C1718.98 742.113 1725 756.599 1735.69 767.276C1746.39 777.953 1760.89 783.95 1776 783.95C1760.88 783.977 1746.38 789.996 1735.69 800.689C1725 811.382 1718.98 825.878 1718.95 841Z" stroke="white" stroke-width="8" stroke-linejoin="round"/>
<path d="M1604.7 570C1604.7 554.883 1598.62 540.384 1587.8 529.695C1576.98 519.005 1562.3 513 1547 513C1562.3 513 1576.98 506.995 1587.8 496.305C1598.62 485.616 1604.7 471.117 1604.7 456C1604.7 471.049 1610.72 485.487 1621.46 496.165C1632.19 506.844 1646.77 512.895 1662 513C1646.7 513 1632.02 519.005 1621.2 529.695C1610.38 540.384 1604.3 554.883 1604.3 570H1604.7Z" stroke="white" stroke-width="8" stroke-linejoin="round"/>
<path d="M326.516 1420.06C245.734 1368.5 190.304 1278.97 192.039 1178.75" stroke="white" stroke-width="8" stroke-linejoin="round"/>
<path d="M325.86 1420.5C368.86 1449.33 487.86 1507 619.86 1507" stroke="white" stroke-width="8"/>
<path d="M192.04 1178.75C192.04 1026.19 308.682 901.006 457.812 887.129C457.619 882.792 457.137 878.552 457.137 874.215C457.137 767.821 543.51 681.569 649.935 681.569C701.605 681.569 748.455 702 782.966 735.055C842.348 577.295 994.272 464.637 1172.9 464.637C1403.1 464.637 1589.73 651.212 1589.73 881.25V881.443C1715.14 922.208 1805.76 1039.88 1805.76 1178.75C1805.76 1262.15 1773.13 1337.93 1719.93 1394" stroke="white" stroke-width="8" stroke-linejoin="round"/>
<path d="M660.05 1186.36C640.774 1193.73 619.237 1197.41 595.439 1197.41C555.221 1197.41 524.76 1186.72 504.056 1165.33C483.352 1143.71 473 1112.1 473 1070.51C473 1029.4 483.828 997.559 505.484 974.983C527.14 952.407 557.601 941.12 596.867 941.12C617.809 941.12 637.68 944.447 656.48 951.1V993.163C634.824 988.41 617.095 986.034 603.292 986.034C578.543 986.034 559.98 992.569 547.606 1005.64C535.469 1018.71 529.4 1038.67 529.4 1065.52V1073.72C529.4 1100.34 535.35 1120.18 547.249 1133.25C559.148 1146.08 577.353 1152.5 601.864 1152.5C615.667 1152.5 635.062 1149.77 660.05 1144.3V1186.36Z" fill="white"/>
<path d="M776.504 1189.22C766.509 1193.26 755.8 1195.28 744.377 1195.28C712.25 1195.28 696.187 1177.33 696.187 1141.45V929H748.304V1137.17C748.304 1143.83 749.375 1148.58 751.516 1151.43C753.896 1154.04 757.704 1155.35 762.939 1155.35C766.271 1155.35 770.792 1155 776.504 1154.28V1189.22Z" fill="white"/>
<path d="M889.815 1198.13C861.496 1198.13 839.364 1189.69 823.42 1172.82C807.475 1155.71 799.503 1131.94 799.503 1101.53C799.503 1071.35 807.475 1047.82 823.42 1030.95C839.364 1013.84 861.496 1005.28 889.815 1005.28C918.134 1005.28 940.266 1013.84 956.211 1030.95C972.155 1047.82 980.127 1071.35 980.127 1101.53C980.127 1131.94 972.155 1155.71 956.211 1172.82C940.266 1189.69 918.134 1198.13 889.815 1198.13ZM889.815 1158.2C914.803 1158.2 927.297 1139.31 927.297 1101.53C927.297 1063.98 914.803 1045.21 889.815 1045.21C864.828 1045.21 852.334 1063.98 852.334 1101.53C852.334 1139.31 864.828 1158.2 889.815 1158.2Z" fill="white"/>
<path d="M1142.1 1192.78L1137.1 1173.53C1115.92 1189.93 1093.79 1198.13 1070.71 1198.13C1054.52 1198.13 1041.91 1193.37 1032.87 1183.87C1023.83 1174.13 1019.3 1160.82 1019.3 1143.95V1010.63H1071.42V1129.33C1071.42 1148.58 1079.75 1158.2 1096.41 1158.2C1108.78 1158.2 1120.92 1154.4 1132.82 1146.8V1010.63H1184.94V1192.78H1142.1Z" fill="white"/>
<path d="M1357.92 1192.78L1353.64 1176.74C1338.89 1190.05 1321.4 1196.7 1301.17 1196.7C1286.17 1196.7 1272.97 1193.02 1261.54 1185.65C1250.12 1178.05 1241.2 1167.11 1234.77 1152.86C1228.58 1138.6 1225.49 1121.84 1225.49 1102.6C1225.49 1073.13 1232.51 1049.6 1246.55 1032.02C1260.59 1014.19 1279.15 1005.28 1302.24 1005.28C1321.04 1005.28 1337.34 1010.63 1351.14 1021.32V929H1403.26V1192.78H1357.92ZM1318.3 1157.49C1329.72 1157.49 1340.67 1154.16 1351.14 1147.51V1053.4C1340.91 1047.46 1329.13 1044.49 1315.8 1044.49C1303.19 1044.49 1293.79 1049.25 1287.6 1058.75C1281.42 1068.02 1278.32 1082.16 1278.32 1101.17C1278.32 1120.18 1281.53 1134.32 1287.96 1143.59C1294.62 1152.86 1304.74 1157.49 1318.3 1157.49Z" fill="white"/>
<path d="M883.236 1516.88C863.96 1524.25 842.423 1527.93 818.626 1527.93C778.408 1527.93 747.947 1517.24 727.243 1495.85C706.539 1474.22 696.187 1442.62 696.187 1401.03C696.187 1359.92 707.015 1328.08 728.671 1305.5C750.327 1282.92 780.788 1271.64 820.054 1271.64C840.996 1271.64 860.867 1274.96 879.667 1281.62V1323.68C858.011 1318.93 840.282 1316.55 826.479 1316.55C801.729 1316.55 783.167 1323.09 770.793 1336.16C758.656 1349.23 752.587 1369.19 752.587 1396.04V1404.24C752.587 1430.85 758.537 1450.7 770.436 1463.77C782.334 1476.6 800.54 1483.02 825.051 1483.02C838.854 1483.02 858.249 1480.28 883.236 1474.82V1516.88Z" fill="white"/>
<path d="M999.691 1519.73C989.696 1523.77 978.987 1525.79 967.564 1525.79C935.437 1525.79 919.374 1507.85 919.374 1471.97V1259.52H971.49V1467.69C971.49 1474.34 972.561 1479.1 974.703 1481.95C977.083 1484.56 980.891 1485.87 986.126 1485.87C989.458 1485.87 993.979 1485.51 999.691 1484.8V1519.73Z" fill="white"/>
<path d="M1156.83 1523.3L1151.83 1504.05C1130.65 1520.44 1108.52 1528.64 1085.43 1528.64C1069.25 1528.64 1056.64 1523.89 1047.59 1514.39C1038.55 1504.64 1034.03 1491.33 1034.03 1474.46V1341.15H1086.15V1459.85C1086.15 1479.1 1094.48 1488.72 1111.13 1488.72C1123.51 1488.72 1135.65 1484.92 1147.54 1477.31V1341.15H1199.66V1523.3H1156.83Z" fill="white"/>
<path d="M1249.5 1523.3V1259.52H1301.61V1355.05C1308.51 1349.11 1316.61 1344.47 1325.89 1341.15C1335.17 1337.58 1344.33 1335.8 1353.37 1335.8C1376.46 1335.8 1394.66 1344.24 1407.99 1361.11C1421.55 1377.98 1428.34 1400.79 1428.34 1429.55C1428.34 1448.32 1425.24 1465.07 1419.05 1479.81C1412.87 1494.54 1403.94 1506.19 1392.28 1514.74C1380.62 1523.06 1367.18 1527.22 1351.95 1527.22C1341 1527.22 1330.77 1525.32 1321.25 1521.51C1311.73 1517.71 1303.76 1512.37 1297.33 1505.47L1292.69 1523.3H1249.5ZM1336.6 1375.01C1324.22 1375.01 1312.56 1378.22 1301.61 1384.63V1478.38C1312.08 1484.8 1323.75 1488.01 1336.6 1488.01C1349.92 1488.01 1359.68 1483.49 1365.87 1474.46C1372.29 1465.43 1375.51 1451.17 1375.51 1431.69C1375.51 1411.96 1372.41 1397.59 1366.22 1388.55C1360.04 1379.52 1350.16 1375.01 1336.6 1375.01Z" fill="white"/>
<path d="M1546.58 1473.04C1546.58 1468.28 1545.15 1464.6 1542.29 1461.99C1539.67 1459.37 1534.2 1456.52 1525.87 1453.43L1498.03 1442.38C1483.51 1436.68 1473.04 1429.67 1466.61 1421.35C1460.19 1413.03 1456.98 1402.46 1456.98 1389.62C1456.98 1373.46 1463.4 1360.51 1476.25 1350.77C1489.34 1340.79 1506.71 1335.8 1528.37 1335.8C1548.36 1335.8 1566.8 1339.72 1583.7 1347.56V1382.14C1565.61 1376.67 1548.72 1373.94 1533.01 1373.94C1523.25 1373.94 1516.11 1375.13 1511.59 1377.5C1507.07 1379.88 1504.81 1383.68 1504.81 1388.91C1504.81 1392.95 1506.12 1396.28 1508.74 1398.89C1511.59 1401.27 1517.42 1404.24 1526.23 1407.8L1553.36 1418.85C1568.11 1424.79 1578.58 1431.69 1584.77 1439.53C1591.2 1447.37 1594.41 1457.59 1594.41 1470.18C1594.41 1487.77 1587.63 1502.03 1574.06 1512.96C1560.73 1523.65 1543.12 1529 1521.23 1529C1496.72 1529 1475.06 1524.13 1456.26 1514.39V1479.81C1479.82 1487.18 1501.36 1490.86 1520.87 1490.86C1538.01 1490.86 1546.58 1484.92 1546.58 1473.04Z" fill="white"/>
<path d="M793 394C793 378.883 787.1 364.385 776.598 353.695C766.096 343.005 751.852 337 737 337C744.354 337 751.636 335.526 758.43 332.661C765.225 329.797 771.398 325.598 776.598 320.305C781.798 315.012 785.923 308.729 788.737 301.813C791.552 294.897 793 287.485 793 280C793 287.485 794.449 294.897 797.263 301.813C800.077 308.729 804.202 315.012 809.402 320.305C814.602 325.598 820.775 329.797 827.57 332.661C834.364 335.526 841.646 337 849 337C834.148 337 819.904 343.005 809.402 353.695C798.9 364.385 793 378.883 793 394Z" stroke="white" stroke-width="8" stroke-linejoin="round"/>
<path d="M316.549 840.901C316.497 825.805 310.516 811.345 299.917 800.689C289.318 790.033 274.964 784.05 260 784.05C274.998 784.05 289.381 778.039 299.986 767.34C310.591 756.641 316.549 742.13 316.549 727C316.536 734.487 317.987 741.903 320.818 748.824C323.649 755.745 327.805 762.035 333.048 767.334C338.292 772.633 344.519 776.837 351.374 779.705C358.23 782.573 365.578 784.05 373 784.05C358.028 784.05 343.67 790.05 333.083 800.73C322.497 811.41 316.549 825.896 316.549 841V840.901Z" stroke="white" stroke-width="8" stroke-linejoin="round"/>
<path d="M575.4 522.4C575.4 526.1 575.8 529.1 576.5 531.3C577.3 533.5 578.3 535.9 579.7 538.5C580.2 539.3 580.4 540.1 580.4 540.8C580.4 541.8 579.8 542.8 578.5 543.8L572.2 548C571.3 548.6 570.4 548.9 569.6 548.9C568.6 548.9 567.6 548.4 566.6 547.5C565.2 546 564 544.4 563 542.8C562 541.1 561 539.2 559.9 536.9C552.1 546.1 542.3 550.7 530.5 550.7C522.1 550.7 515.4 548.3 510.5 543.5C505.6 538.7 503.1 532.3 503.1 524.3C503.1 515.8 506.1 508.9 512.2 503.7C518.3 498.5 526.4 495.9 536.7 495.9C540.1 495.9 543.6 496.2 547.3 496.7C551 497.2 554.8 498 558.8 498.9V491.6C558.8 484 557.2 478.7 554.1 475.6C550.9 472.5 545.5 471 537.8 471C534.3 471 530.7 471.4 527 472.3C523.3 473.2 519.7 474.3 516.2 475.7C514.6 476.4 513.4 476.8 512.7 477C512 477.2 511.5 477.3 511.1 477.3C509.7 477.3 509 476.3 509 474.2V469.3C509 467.7 509.2 466.5 509.7 465.8C510.2 465.1 511.1 464.4 512.5 463.7C516 461.9 520.2 460.4 525.1 459.2C530 457.9 535.2 457.3 540.7 457.3C552.6 457.3 561.3 460 566.9 465.4C572.4 470.8 575.2 479 575.2 490V522.4H575.4ZM534.8 537.6C538.1 537.6 541.5 537 545.1 535.8C548.7 534.6 551.9 532.4 554.6 529.4C556.2 527.5 557.4 525.4 558 523C558.6 520.6 559 517.7 559 514.3V510.1C556.1 509.4 553 508.8 549.8 508.4C546.6 508 543.5 507.8 540.4 507.8C533.7 507.8 528.8 509.1 525.5 511.8C522.2 514.5 520.6 518.3 520.6 523.3C520.6 528 521.8 531.5 524.3 533.9C526.7 536.4 530.2 537.6 534.8 537.6ZM615.1 548.4C613.3 548.4 612.1 548.1 611.3 547.4C610.5 546.8 609.8 545.4 609.2 543.5L585.7 466.2C585.1 464.2 584.8 462.9 584.8 462.2C584.8 460.6 585.6 459.7 587.2 459.7H597C598.9 459.7 600.2 460 600.9 460.7C601.7 461.3 602.3 462.7 602.9 464.6L619.7 530.8L635.3 464.6C635.8 462.6 636.4 461.3 637.2 460.7C638 460.1 639.4 459.7 641.2 459.7H649.2C651.1 459.7 652.4 460 653.2 460.7C654 461.3 654.7 462.7 655.1 464.6L670.9 531.6L688.2 464.6C688.8 462.6 689.5 461.3 690.2 460.7C691 460.1 692.3 459.7 694.1 459.7H703.4C705 459.7 705.9 460.5 705.9 462.2C705.9 462.7 705.8 463.2 705.7 463.8C705.6 464.4 705.4 465.2 705 466.3L680.9 543.6C680.3 545.6 679.6 546.9 678.8 547.5C678 548.1 676.7 548.5 675 548.5H666.4C664.5 548.5 663.2 548.2 662.4 547.5C661.6 546.8 660.9 545.5 660.5 543.5L645 479L629.6 543.4C629.1 545.4 628.5 546.7 627.7 547.4C626.9 548.1 625.5 548.4 623.7 548.4H615.1ZM743.6 551.1C738.4 551.1 733.2 550.5 728.2 549.3C723.2 548.1 719.3 546.8 716.7 545.3C715.1 544.4 714 543.4 713.6 542.5C713.2 541.6 713 540.6 713 539.7V534.6C713 532.5 713.8 531.5 715.3 531.5C715.9 531.5 716.5 531.6 717.1 531.8C717.7 532 718.6 532.4 719.6 532.8C723 534.3 726.7 535.5 730.6 536.3C734.6 537.1 738.5 537.5 742.5 537.5C748.8 537.5 753.7 536.4 757.1 534.2C760.5 532 762.3 528.8 762.3 524.7C762.3 521.9 761.4 519.6 759.6 517.7C757.8 515.8 754.4 514.1 749.5 512.5L735 508C727.7 505.7 722.3 502.3 719 497.8C715.7 493.4 714 488.5 714 483.3C714 479.1 714.9 475.4 716.7 472.2C718.5 469 720.9 466.2 723.9 464C726.9 461.7 730.3 460 734.3 458.8C738.3 457.6 742.5 457.1 746.9 457.1C749.1 457.1 751.4 457.2 753.6 457.5C755.9 457.8 758 458.2 760.1 458.6C762.1 459.1 764 459.6 765.8 460.2C767.6 460.8 769 461.4 770 462C771.4 462.8 772.4 463.6 773 464.5C773.6 465.3 773.9 466.4 773.9 467.8V472.5C773.9 474.6 773.1 475.7 771.6 475.7C770.8 475.7 769.5 475.3 767.8 474.5C762.1 471.9 755.7 470.6 748.6 470.6C742.9 470.6 738.4 471.5 735.3 473.4C732.2 475.3 730.6 478.2 730.6 482.3C730.6 485.1 731.6 487.5 733.6 489.4C735.6 491.3 739.3 493.2 744.6 494.9L758.8 499.4C766 501.7 771.2 504.9 774.3 509C777.4 513.1 778.9 517.8 778.9 523C778.9 527.3 778 531.2 776.3 534.6C774.5 538 772.1 541 769 543.4C765.9 545.9 762.2 547.7 757.9 549C753.4 550.4 748.7 551.1 743.6 551.1Z" fill="white"/>
<path d="M762.5 599.7C729.6 624 681.8 636.9 640.7 636.9C583.1 636.9 531.2 615.6 492 580.2C488.9 577.4 491.7 573.6 495.4 575.8C537.8 600.4 590.1 615.3 644.2 615.3C680.7 615.3 720.8 607.7 757.7 592.1C763.2 589.6 767.9 595.7 762.5 599.7Z" fill="white"/>
<path d="M776.2 584.1C772 578.7 748.4 581.5 737.7 582.8C734.5 583.2 734 580.4 736.9 578.3C755.7 565.1 786.6 568.9 790.2 573.3C793.8 577.8 789.2 608.7 771.6 623.5C768.9 625.8 766.3 624.6 767.5 621.6C771.5 611.7 780.4 589.4 776.2 584.1Z" fill="white"/>
<path d="M725.089 1721.82C718.603 1721.82 712.118 1720.61 705.633 1718.18C699.249 1715.64 693.574 1712.05 688.609 1707.38L700.617 1693.1C704.163 1696.34 708.115 1698.92 712.473 1700.85C716.931 1702.77 721.289 1703.74 725.545 1703.74C730.51 1703.74 734.209 1702.82 736.641 1701C739.174 1699.07 740.441 1696.44 740.441 1693.1C740.441 1690.87 739.833 1689.04 738.617 1687.62C737.401 1686.21 735.678 1684.99 733.449 1683.98C731.321 1682.86 728.787 1681.7 725.849 1680.48L712.777 1674.86C709.331 1673.44 706.089 1671.56 703.049 1669.23C700.009 1666.9 697.526 1664.01 695.601 1660.57C693.675 1657.02 692.713 1652.87 692.713 1648.1C692.713 1642.63 694.182 1637.72 697.121 1633.36C700.161 1629 704.265 1625.56 709.433 1623.02C714.702 1620.39 720.681 1619.07 727.369 1619.07C733.145 1619.07 738.769 1620.19 744.241 1622.42C749.814 1624.65 754.678 1627.79 758.833 1631.84L748.193 1645.06C745.051 1642.53 741.809 1640.55 738.465 1639.14C735.121 1637.72 731.422 1637.01 727.369 1637.01C723.315 1637.01 720.022 1637.87 717.489 1639.59C715.057 1641.31 713.841 1643.75 713.841 1646.89C713.841 1649.02 714.499 1650.79 715.817 1652.21C717.134 1653.63 718.958 1654.89 721.289 1656.01C723.721 1657.02 726.355 1658.14 729.193 1659.35L741.961 1664.52C746.014 1666.14 749.51 1668.17 752.449 1670.6C755.387 1673.03 757.667 1675.97 759.289 1679.42C761.011 1682.76 761.873 1686.76 761.873 1691.42C761.873 1696.9 760.403 1701.96 757.465 1706.62C754.627 1711.18 750.422 1714.88 744.849 1717.72C739.377 1720.46 732.79 1721.82 725.089 1721.82ZM815.036 1721.82C806.22 1721.82 798.417 1719.75 791.628 1715.59C784.94 1711.44 779.721 1705.51 775.972 1697.81C772.223 1690.01 770.348 1680.73 770.348 1669.99C770.348 1659.25 772.223 1650.08 775.972 1642.48C779.721 1634.88 784.94 1629.1 791.628 1625.15C798.417 1621.1 806.22 1619.07 815.036 1619.07C823.852 1619.07 831.604 1621.1 838.292 1625.15C844.98 1629.1 850.199 1634.88 853.948 1642.48C857.697 1650.08 859.572 1659.25 859.572 1669.99C859.572 1680.73 857.697 1690.01 853.948 1697.81C850.199 1705.51 844.98 1711.44 838.292 1715.59C831.604 1719.75 823.852 1721.82 815.036 1721.82ZM815.036 1703.74C819.697 1703.74 823.751 1702.37 827.196 1699.63C830.743 1696.9 833.428 1692.99 835.252 1687.93C837.177 1682.86 838.14 1676.88 838.14 1669.99C838.14 1663.1 837.177 1657.22 835.252 1652.36C833.428 1647.39 830.743 1643.59 827.196 1640.96C823.751 1638.33 819.697 1637.01 815.036 1637.01C810.273 1637.01 806.119 1638.33 802.572 1640.96C799.127 1643.59 796.441 1647.39 794.516 1652.36C792.692 1657.22 791.78 1663.1 791.78 1669.99C791.78 1676.88 792.692 1682.86 794.516 1687.93C796.441 1692.99 799.127 1696.9 802.572 1699.63C806.119 1702.37 810.273 1703.74 815.036 1703.74ZM913.329 1721.82C907.148 1721.82 901.625 1720.91 896.761 1719.09C891.897 1717.26 887.793 1714.48 884.449 1710.73C881.105 1706.98 878.572 1702.11 876.849 1696.14C875.126 1690.16 874.265 1683.06 874.265 1674.86V1620.9H895.241V1676.83C895.241 1683.52 895.95 1688.84 897.369 1692.79C898.788 1696.74 900.865 1699.58 903.601 1701.3C906.337 1702.93 909.58 1703.74 913.329 1703.74C917.18 1703.74 920.473 1702.93 923.209 1701.3C925.945 1699.58 928.073 1696.74 929.593 1692.79C931.113 1688.84 931.873 1683.52 931.873 1676.83V1620.9H951.937V1674.86C951.937 1683.06 951.076 1690.16 949.353 1696.14C947.732 1702.11 945.249 1706.98 941.905 1710.73C938.662 1714.48 934.609 1717.26 929.745 1719.09C924.982 1720.91 919.51 1721.82 913.329 1721.82ZM991.321 1720V1638.38H963.505V1620.9H1039.96V1638.38H1012.15V1720H991.321ZM1051.93 1720V1620.9H1072.75V1659.5H1108.93V1620.9H1129.75V1720H1108.93V1677.74H1072.75V1720H1051.93ZM1176.59 1720V1620.9H1197.41V1662.85H1198.02L1229.33 1620.9H1252.43L1222.19 1660.11L1257.75 1720H1234.8L1209.87 1676.53L1197.41 1692.64V1720H1176.59ZM1305.24 1721.82C1296.42 1721.82 1288.62 1719.75 1281.83 1715.59C1275.14 1711.44 1269.92 1705.51 1266.17 1697.81C1262.42 1690.01 1260.55 1680.73 1260.55 1669.99C1260.55 1659.25 1262.42 1650.08 1266.17 1642.48C1269.92 1634.88 1275.14 1629.1 1281.83 1625.15C1288.62 1621.1 1296.42 1619.07 1305.24 1619.07C1314.05 1619.07 1321.8 1621.1 1328.49 1625.15C1335.18 1629.1 1340.4 1634.88 1344.15 1642.48C1347.9 1650.08 1349.77 1659.25 1349.77 1669.99C1349.77 1680.73 1347.9 1690.01 1344.15 1697.81C1340.4 1705.51 1335.18 1711.44 1328.49 1715.59C1321.8 1719.75 1314.05 1721.82 1305.24 1721.82ZM1305.24 1703.74C1309.9 1703.74 1313.95 1702.37 1317.4 1699.63C1320.94 1696.9 1323.63 1692.99 1325.45 1687.93C1327.38 1682.86 1328.34 1676.88 1328.34 1669.99C1328.34 1663.1 1327.38 1657.22 1325.45 1652.36C1323.63 1647.39 1320.94 1643.59 1317.4 1640.96C1313.95 1638.33 1309.9 1637.01 1305.24 1637.01C1300.47 1637.01 1296.32 1638.33 1292.77 1640.96C1289.33 1643.59 1286.64 1647.39 1284.72 1652.36C1282.89 1657.22 1281.98 1663.1 1281.98 1669.99C1281.98 1676.88 1282.89 1682.86 1284.72 1687.93C1286.64 1692.99 1289.33 1696.9 1292.77 1699.63C1296.32 1702.37 1300.47 1703.74 1305.24 1703.74ZM1365.07 1720V1620.9H1400.03C1407.02 1620.9 1413.36 1621.81 1419.03 1623.63C1424.71 1625.46 1429.22 1628.6 1432.56 1633.06C1436.01 1637.51 1437.73 1643.59 1437.73 1651.3C1437.73 1658.69 1436.01 1664.77 1432.56 1669.54C1429.22 1674.2 1424.71 1677.69 1419.03 1680.02C1413.36 1682.25 1407.02 1683.37 1400.03 1683.37H1385.9V1720H1365.07ZM1418.88 1720L1396.23 1677.74L1410.82 1664.67L1442.29 1720H1418.88ZM1385.9 1666.65H1398.21C1404.39 1666.65 1409.1 1665.38 1412.34 1662.85C1415.59 1660.21 1417.21 1656.36 1417.21 1651.3C1417.21 1646.13 1415.59 1642.53 1412.34 1640.5C1409.1 1638.48 1404.39 1637.46 1398.21 1637.46H1385.9V1666.65ZM1453.45 1720V1620.9H1514.86V1638.38H1474.28V1659.96H1508.78V1677.59H1474.28V1702.52H1516.38V1720H1453.45ZM1519.71 1720L1551.18 1620.9H1576.1L1607.57 1720H1585.53L1571.85 1668.93C1570.43 1663.86 1569.01 1658.54 1567.59 1652.97C1566.28 1647.39 1564.91 1641.97 1563.49 1636.7H1562.88C1561.66 1641.97 1560.35 1647.39 1558.93 1652.97C1557.61 1658.54 1556.24 1663.86 1554.82 1668.93L1540.99 1720H1519.71ZM1539.78 1695.38V1679.11H1587.2V1695.38H1539.78Z" fill="white"/>
<defs>
<linearGradient id="paint0_linear_5_5" x1="0" y1="0" x2="2000" y2="2000" gradientUnits="userSpaceOnUse">
<stop stop-color="#686C73"/>
<stop offset="1" stop-color="#1A1F23"/>
</linearGradient>
</defs>
</svg>
